<svg width="269" height="412" viewBox="0 0 269 412" fill="none" xmlns="http://www.w3.org/2000/svg">
<path fill-rule="evenodd" clip-rule="evenodd" d="M0.847794 87.6408C0.847794 39.2381 40.0859 0 88.4886 0H145.368C165.852 0 182.459 16.6061 182.459 37.0908V37.0908C182.459 57.5755 165.852 74.1817 145.368 74.1817H128.606C99.8751 74.1817 76.5845 97.4723 76.5845 126.203V126.203C76.5845 154.933 99.8751 178.224 128.606 178.224H157.287L159.646 178.224V178.224C174.793 178.224 181.687 159.314 170.094 149.565L148.303 131.242C129.298 115.26 140.599 84.2604 165.431 84.2604H221.206C247.134 84.2604 268.152 105.279 268.152 131.207V326.744C268.152 373.435 230.301 411.286 183.61 411.286H146.019C120.089 411.286 99.0681 390.265 99.0681 364.335V364.335C99.0681 338.405 120.089 317.385 146.019 317.385H172.186C189.853 317.385 204.174 303.063 204.174 285.396V285.396C204.174 267.729 189.853 253.407 172.186 253.407H159.646H121.881V253.407C96.8643 253.407 76.5845 273.687 76.5845 298.703V371.589C76.5845 392.504 59.6302 409.458 38.7161 409.458V409.458C17.802 409.458 0.847794 392.504 0.847794 371.589V87.6408ZM268.152 31.9889C268.152 14.3219 253.83 0 236.163 0V0C218.496 0 204.174 14.3219 204.174 31.9889V34.7433C204.174 52.4103 218.496 66.7322 236.163 66.7322V66.7322C253.83 66.7322 268.152 52.4103 268.152 34.7433V31.9889Z" fill="white"/>
<path fill-rule="evenodd" clip-rule="evenodd" d="M159.001 71.596C172.74 66.1632 182.459 52.762 182.459 37.0908C182.459 16.6061 165.852 0 145.368 0H88.4886C40.0859 0 0.847794 39.2381 0.847794 87.6408V371.589C0.847794 392.504 17.802 409.458 38.7161 409.458C59.6302 409.458 76.5845 392.504 76.5845 371.589V298.703C76.5845 273.687 96.8643 253.407 121.881 253.407H172.186C189.853 253.407 204.174 267.729 204.174 285.396C204.174 303.063 189.853 317.385 172.186 317.385H146.019C120.089 317.385 99.0681 338.405 99.0681 364.335C99.0681 390.265 120.089 411.286 146.019 411.286H183.61C230.301 411.286 268.152 373.435 268.152 326.744V131.207C268.152 105.279 247.134 84.2604 221.206 84.2604H165.431C164.324 84.2604 163.244 84.322 162.193 84.4411C159.431 84.7539 156.865 85.4634 154.521 86.4959C137.737 93.8896 132.37 117.844 148.303 131.242L170.094 149.565C181.687 159.314 174.793 178.224 159.646 178.224L128.606 178.224C99.8751 178.224 76.5845 154.933 76.5845 126.203C76.5845 97.4723 99.8751 74.1817 128.606 74.1817H145.368C147.183 74.1817 148.968 74.0513 150.713 73.7994C153.596 73.3832 156.372 72.6355 159.001 71.596ZM145.368 13.1461H88.4886C47.3463 13.1461 13.9939 46.4985 13.9939 87.6408V371.589C13.9939 385.243 25.0624 396.312 38.7161 396.312C52.3698 396.312 63.4384 385.243 63.4384 371.589V298.703C63.4384 266.427 89.6039 240.261 121.881 240.261H172.186C197.113 240.261 217.321 260.469 217.321 285.396C217.321 310.323 197.113 330.531 172.186 330.531H146.019C127.349 330.531 112.214 345.666 112.214 364.335C112.214 383.005 127.349 398.14 146.019 398.14H183.61C223.041 398.14 255.006 366.175 255.006 326.744V131.207C255.006 112.539 239.873 97.4065 221.206 97.4065H165.431C152.866 97.4065 147.147 113.093 156.764 121.18L178.555 139.504C199.536 157.147 187.06 191.37 159.646 191.37L128.606 191.37C92.6147 191.37 63.4384 162.194 63.4384 126.203C63.4384 90.2119 92.6147 61.0355 128.606 61.0355H145.368C158.592 61.0355 169.312 50.3152 169.312 37.0908C169.312 23.8665 158.592 13.1461 145.368 13.1461ZM217.321 31.9889V34.7433C217.321 45.1499 225.757 53.5861 236.163 53.5861C246.57 53.5861 255.006 45.1499 255.006 34.7433V31.9889C255.006 21.5823 246.57 13.1461 236.163 13.1461C225.757 13.1461 217.321 21.5823 217.321 31.9889ZM236.163 0C253.83 0 268.152 14.3219 268.152 31.9889V34.7433C268.152 52.4103 253.83 66.7322 236.163 66.7322C218.496 66.7322 204.174 52.4103 204.174 34.7433V31.9889C204.174 14.3219 218.496 0 236.163 0Z" fill="black"/>
</svg>
